<mxfile host="app.diagrams.net" modified="2020-03-25T10:35:15.448Z" agent="Mozilla/5.0 (Macintosh; Intel Mac OS X 10_13_6) AppleWebKit/537.36 (KHTML, like Gecko) Chrome/80.0.3987.149 Safari/537.36" etag="aPtF21md75V8TjZM4Mc2" version="12.9.2" type="github">
  <diagram id="V09Fn3kxZLaCwSuTrizd" name="第 1 页">
    <mxGraphModel dx="983" dy="548" grid="0" gridSize="10" guides="1" tooltips="1" connect="1" arrows="1" fold="1" page="1" pageScale="1" pageWidth="827" pageHeight="1169" math="0" shadow="0">
      <root>
        <mxCell id="0" />
        <mxCell id="1" parent="0" />
        <mxCell id="GR49qIYdJjRqmFcjoccf-11" value="" style="rounded=0;whiteSpace=wrap;html=1;fillColor=#fff2cc;strokeColor=#d6b656;" parent="1" vertex="1">
          <mxGeometry x="175" y="120" width="450" height="80" as="geometry" />
        </mxCell>
        <mxCell id="GR49qIYdJjRqmFcjoccf-2" value="业务层" style="text;html=1;strokeColor=none;fillColor=none;align=center;verticalAlign=middle;whiteSpace=wrap;rounded=0;" parent="1" vertex="1">
          <mxGeometry x="90" y="260" width="70" height="20" as="geometry" />
        </mxCell>
        <mxCell id="GR49qIYdJjRqmFcjoccf-3" value="前端业务" style="text;html=1;strokeColor=none;fillColor=none;align=center;verticalAlign=middle;whiteSpace=wrap;rounded=0;" parent="1" vertex="1">
          <mxGeometry x="90" y="140" width="70" height="20" as="geometry" />
        </mxCell>
        <mxCell id="GR49qIYdJjRqmFcjoccf-5" value="" style="aspect=fixed;html=1;points=[];align=center;image;fontSize=12;image=img/lib/mscae/App_Service_Mobile_App.svg;" parent="1" vertex="1">
          <mxGeometry x="260" y="130" width="34" height="50" as="geometry" />
        </mxCell>
        <mxCell id="GR49qIYdJjRqmFcjoccf-6" value="" style="shape=mxgraph.signs.tech.computer;html=1;fillColor=#000000;strokeColor=none;verticalLabelPosition=bottom;verticalAlign=top;align=center;" parent="1" vertex="1">
          <mxGeometry x="370" y="130" width="60" height="50" as="geometry" />
        </mxCell>
        <mxCell id="GR49qIYdJjRqmFcjoccf-7" value="" style="pointerEvents=1;shadow=0;dashed=0;html=1;strokeColor=none;fillColor=#434445;aspect=fixed;labelPosition=center;verticalLabelPosition=bottom;verticalAlign=top;align=center;outlineConnect=0;shape=mxgraph.vvd.web_browser;" parent="1" vertex="1">
          <mxGeometry x="500" y="137.25" width="50" height="35.5" as="geometry" />
        </mxCell>
        <mxCell id="GR49qIYdJjRqmFcjoccf-8" value="" style="endArrow=none;dashed=1;html=1;" parent="1" edge="1">
          <mxGeometry width="50" height="50" relative="1" as="geometry">
            <mxPoint x="80" y="210" as="sourcePoint" />
            <mxPoint x="700" y="210" as="targetPoint" />
          </mxGeometry>
        </mxCell>
        <mxCell id="GR49qIYdJjRqmFcjoccf-9" value="" style="endArrow=none;dashed=1;html=1;" parent="1" edge="1">
          <mxGeometry width="50" height="50" relative="1" as="geometry">
            <mxPoint x="80" y="330" as="sourcePoint" />
            <mxPoint x="700" y="330" as="targetPoint" />
          </mxGeometry>
        </mxCell>
        <mxCell id="GR49qIYdJjRqmFcjoccf-12" value="" style="rounded=0;whiteSpace=wrap;html=1;fillColor=#dae8fc;strokeColor=#6c8ebf;" parent="1" vertex="1">
          <mxGeometry x="175" y="220" width="450" height="100" as="geometry" />
        </mxCell>
        <mxCell id="GR49qIYdJjRqmFcjoccf-13" value="业务后台" style="rounded=0;whiteSpace=wrap;html=1;fillColor=#d5e8d4;strokeColor=#82b366;" parent="1" vertex="1">
          <mxGeometry x="270" y="245" width="90" height="50" as="geometry" />
        </mxCell>
        <mxCell id="GR49qIYdJjRqmFcjoccf-22" value="服务后台" style="rounded=0;whiteSpace=wrap;html=1;fillColor=#d5e8d4;strokeColor=#82b366;" parent="1" vertex="1">
          <mxGeometry x="430" y="245" width="90" height="50" as="geometry" />
        </mxCell>
        <mxCell id="GR49qIYdJjRqmFcjoccf-30" value="第三方" style="text;html=1;strokeColor=none;fillColor=none;align=center;verticalAlign=middle;whiteSpace=wrap;rounded=0;" parent="1" vertex="1">
          <mxGeometry x="90" y="400" width="70" height="20" as="geometry" />
        </mxCell>
        <mxCell id="GR49qIYdJjRqmFcjoccf-32" value="" style="rounded=0;whiteSpace=wrap;html=1;fillColor=#CCCCCC;strokeColor=#666666;gradientColor=none;" parent="1" vertex="1">
          <mxGeometry x="175" y="390" width="450" height="140" as="geometry" />
        </mxCell>
        <mxCell id="GR49qIYdJjRqmFcjoccf-33" value="proxy" style="rounded=0;whiteSpace=wrap;html=1;fillColor=#CCCCCC;strokeColor=#6c8ebf;" parent="1" vertex="1">
          <mxGeometry x="175" y="340" width="450" height="30" as="geometry" />
        </mxCell>
        <mxCell id="GR49qIYdJjRqmFcjoccf-38" value="" style="shape=flexArrow;endArrow=classic;html=1;width=6;endSize=2.67;endWidth=8;" parent="1" edge="1">
          <mxGeometry width="50" height="50" relative="1" as="geometry">
            <mxPoint x="276.94" y="340" as="sourcePoint" />
            <mxPoint x="276.94" y="320" as="targetPoint" />
          </mxGeometry>
        </mxCell>
        <mxCell id="GR49qIYdJjRqmFcjoccf-39" value="" style="shape=flexArrow;endArrow=classic;html=1;width=6;endSize=2.67;endWidth=8;" parent="1" edge="1">
          <mxGeometry width="50" height="50" relative="1" as="geometry">
            <mxPoint x="390" y="340" as="sourcePoint" />
            <mxPoint x="390" y="320" as="targetPoint" />
          </mxGeometry>
        </mxCell>
        <mxCell id="GR49qIYdJjRqmFcjoccf-42" value="" style="shape=flexArrow;endArrow=classic;html=1;width=6;endSize=2.67;endWidth=8;" parent="1" edge="1">
          <mxGeometry width="50" height="50" relative="1" as="geometry">
            <mxPoint x="276.8" y="220" as="sourcePoint" />
            <mxPoint x="276.8" y="200" as="targetPoint" />
          </mxGeometry>
        </mxCell>
        <mxCell id="GR49qIYdJjRqmFcjoccf-43" value="" style="shape=flexArrow;endArrow=classic;html=1;width=6;endSize=2.67;endWidth=8;" parent="1" edge="1">
          <mxGeometry width="50" height="50" relative="1" as="geometry">
            <mxPoint x="389.99999999999994" y="220" as="sourcePoint" />
            <mxPoint x="389.99999999999994" y="200" as="targetPoint" />
          </mxGeometry>
        </mxCell>
        <mxCell id="GR49qIYdJjRqmFcjoccf-44" value="" style="shape=flexArrow;endArrow=classic;html=1;width=6;endSize=2.67;endWidth=8;" parent="1" edge="1">
          <mxGeometry width="50" height="50" relative="1" as="geometry">
            <mxPoint x="499.99999999999994" y="220" as="sourcePoint" />
            <mxPoint x="499.99999999999994" y="200" as="targetPoint" />
          </mxGeometry>
        </mxCell>
        <mxCell id="GR49qIYdJjRqmFcjoccf-45" value="" style="shape=flexArrow;endArrow=classic;html=1;width=6;endSize=2.67;endWidth=8;" parent="1" edge="1">
          <mxGeometry width="50" height="50" relative="1" as="geometry">
            <mxPoint x="276.8" y="390" as="sourcePoint" />
            <mxPoint x="276.8" y="370" as="targetPoint" />
          </mxGeometry>
        </mxCell>
        <mxCell id="GR49qIYdJjRqmFcjoccf-46" value="" style="shape=flexArrow;endArrow=classic;html=1;width=6;endSize=2.67;endWidth=8;" parent="1" edge="1">
          <mxGeometry width="50" height="50" relative="1" as="geometry">
            <mxPoint x="499.99999999999994" y="390" as="sourcePoint" />
            <mxPoint x="499.99999999999994" y="370" as="targetPoint" />
          </mxGeometry>
        </mxCell>
        <mxCell id="GR49qIYdJjRqmFcjoccf-47" value="" style="shape=flexArrow;endArrow=classic;html=1;width=6;endSize=2.67;endWidth=8;entryX=0.835;entryY=1.004;entryDx=0;entryDy=0;entryPerimeter=0;" parent="1" target="GR49qIYdJjRqmFcjoccf-12" edge="1">
          <mxGeometry width="50" height="50" relative="1" as="geometry">
            <mxPoint x="551" y="340" as="sourcePoint" />
            <mxPoint x="550" y="440" as="targetPoint" />
          </mxGeometry>
        </mxCell>
        <mxCell id="GR49qIYdJjRqmFcjoccf-48" value="班课" style="rounded=0;whiteSpace=wrap;html=1;" parent="1" vertex="1">
          <mxGeometry x="204" y="400" width="90" height="50" as="geometry" />
        </mxCell>
        <mxCell id="GR49qIYdJjRqmFcjoccf-49" value="订单" style="rounded=0;whiteSpace=wrap;html=1;" parent="1" vertex="1">
          <mxGeometry x="310" y="400" width="90" height="50" as="geometry" />
        </mxCell>
        <mxCell id="GR49qIYdJjRqmFcjoccf-50" value="支付" style="rounded=0;whiteSpace=wrap;html=1;" parent="1" vertex="1">
          <mxGeometry x="410" y="400" width="90" height="50" as="geometry" />
        </mxCell>
        <mxCell id="GR49qIYdJjRqmFcjoccf-51" value="优惠" style="rounded=0;whiteSpace=wrap;html=1;" parent="1" vertex="1">
          <mxGeometry x="510" y="400" width="90" height="50" as="geometry" />
        </mxCell>
        <mxCell id="GR49qIYdJjRqmFcjoccf-52" value="在线" style="rounded=0;whiteSpace=wrap;html=1;" parent="1" vertex="1">
          <mxGeometry x="204" y="460" width="90" height="50" as="geometry" />
        </mxCell>
        <mxCell id="GR49qIYdJjRqmFcjoccf-53" value="用户中心" style="rounded=0;whiteSpace=wrap;html=1;" parent="1" vertex="1">
          <mxGeometry x="310" y="460" width="90" height="50" as="geometry" />
        </mxCell>
        <mxCell id="GR49qIYdJjRqmFcjoccf-54" value="云信" style="rounded=0;whiteSpace=wrap;html=1;" parent="1" vertex="1">
          <mxGeometry x="410" y="460" width="90" height="50" as="geometry" />
        </mxCell>
        <mxCell id="GR49qIYdJjRqmFcjoccf-56" value="。。。" style="rounded=0;whiteSpace=wrap;html=1;" parent="1" vertex="1">
          <mxGeometry x="510" y="460" width="90" height="50" as="geometry" />
        </mxCell>
        <mxCell id="GR49qIYdJjRqmFcjoccf-57" value="" style="rounded=0;whiteSpace=wrap;html=1;fillColor=#ffe6cc;strokeColor=#d79b00;" parent="1" vertex="1">
          <mxGeometry x="185" y="1016" width="315" height="100" as="geometry" />
        </mxCell>
        <mxCell id="GR49qIYdJjRqmFcjoccf-58" value="" style="rounded=0;whiteSpace=wrap;html=1;fillColor=#fff2cc;strokeColor=#d6b656;" parent="1" vertex="1">
          <mxGeometry x="185" y="796" width="450" height="80" as="geometry" />
        </mxCell>
        <mxCell id="GR49qIYdJjRqmFcjoccf-59" value="服务层" style="text;html=1;strokeColor=none;fillColor=none;align=center;verticalAlign=middle;whiteSpace=wrap;rounded=0;" parent="1" vertex="1">
          <mxGeometry x="100" y="1056" width="70" height="20" as="geometry" />
        </mxCell>
        <mxCell id="GR49qIYdJjRqmFcjoccf-60" value="业务层" style="text;html=1;strokeColor=none;fillColor=none;align=center;verticalAlign=middle;whiteSpace=wrap;rounded=0;" parent="1" vertex="1">
          <mxGeometry x="100" y="936" width="70" height="20" as="geometry" />
        </mxCell>
        <mxCell id="GR49qIYdJjRqmFcjoccf-61" value="前端业务" style="text;html=1;strokeColor=none;fillColor=none;align=center;verticalAlign=middle;whiteSpace=wrap;rounded=0;" parent="1" vertex="1">
          <mxGeometry x="100" y="816" width="70" height="20" as="geometry" />
        </mxCell>
        <mxCell id="GR49qIYdJjRqmFcjoccf-62" value="" style="aspect=fixed;html=1;points=[];align=center;image;fontSize=12;image=img/lib/mscae/App_Service_Mobile_App.svg;" parent="1" vertex="1">
          <mxGeometry x="270" y="806" width="34" height="50" as="geometry" />
        </mxCell>
        <mxCell id="GR49qIYdJjRqmFcjoccf-63" value="" style="shape=mxgraph.signs.tech.computer;html=1;fillColor=#000000;strokeColor=none;verticalLabelPosition=bottom;verticalAlign=top;align=center;" parent="1" vertex="1">
          <mxGeometry x="380" y="806" width="60" height="50" as="geometry" />
        </mxCell>
        <mxCell id="GR49qIYdJjRqmFcjoccf-64" value="" style="pointerEvents=1;shadow=0;dashed=0;html=1;strokeColor=none;fillColor=#434445;aspect=fixed;labelPosition=center;verticalLabelPosition=bottom;verticalAlign=top;align=center;outlineConnect=0;shape=mxgraph.vvd.web_browser;" parent="1" vertex="1">
          <mxGeometry x="510" y="813.25" width="50" height="35.5" as="geometry" />
        </mxCell>
        <mxCell id="GR49qIYdJjRqmFcjoccf-65" value="" style="endArrow=none;dashed=1;html=1;" parent="1" edge="1">
          <mxGeometry width="50" height="50" relative="1" as="geometry">
            <mxPoint x="90" y="885.9999999999999" as="sourcePoint" />
            <mxPoint x="710" y="885.9999999999999" as="targetPoint" />
          </mxGeometry>
        </mxCell>
        <mxCell id="GR49qIYdJjRqmFcjoccf-66" value="" style="endArrow=none;dashed=1;html=1;" parent="1" edge="1">
          <mxGeometry width="50" height="50" relative="1" as="geometry">
            <mxPoint x="90" y="1005.9999999999999" as="sourcePoint" />
            <mxPoint x="710" y="1005.9999999999999" as="targetPoint" />
          </mxGeometry>
        </mxCell>
        <mxCell id="GR49qIYdJjRqmFcjoccf-67" value="" style="rounded=0;whiteSpace=wrap;html=1;fillColor=#dae8fc;strokeColor=#6c8ebf;" parent="1" vertex="1">
          <mxGeometry x="185" y="896" width="450" height="100" as="geometry" />
        </mxCell>
        <mxCell id="GR49qIYdJjRqmFcjoccf-68" value="业务后台" style="rounded=0;whiteSpace=wrap;html=1;fillColor=#d5e8d4;strokeColor=#82b366;" parent="1" vertex="1">
          <mxGeometry x="280" y="921" width="90" height="50" as="geometry" />
        </mxCell>
        <mxCell id="GR49qIYdJjRqmFcjoccf-69" value="服务后台" style="rounded=0;whiteSpace=wrap;html=1;fillColor=#d5e8d4;strokeColor=#82b366;" parent="1" vertex="1">
          <mxGeometry x="440" y="921" width="90" height="50" as="geometry" />
        </mxCell>
        <mxCell id="GR49qIYdJjRqmFcjoccf-70" value="评价中心" style="rounded=0;whiteSpace=wrap;html=1;" parent="1" vertex="1">
          <mxGeometry x="190" y="1041" width="90" height="50" as="geometry" />
        </mxCell>
        <mxCell id="GR49qIYdJjRqmFcjoccf-71" value="头条中心" style="rounded=0;whiteSpace=wrap;html=1;" parent="1" vertex="1">
          <mxGeometry x="297.5" y="1041" width="90" height="50" as="geometry" />
        </mxCell>
        <mxCell id="GR49qIYdJjRqmFcjoccf-72" value="用户中心" style="rounded=0;whiteSpace=wrap;html=1;" parent="1" vertex="1">
          <mxGeometry x="400" y="1041" width="90" height="50" as="geometry" />
        </mxCell>
        <mxCell id="GR49qIYdJjRqmFcjoccf-73" value="" style="endArrow=none;dashed=1;html=1;" parent="1" edge="1">
          <mxGeometry width="50" height="50" relative="1" as="geometry">
            <mxPoint x="90" y="1126" as="sourcePoint" />
            <mxPoint x="710" y="1126" as="targetPoint" />
          </mxGeometry>
        </mxCell>
        <mxCell id="GR49qIYdJjRqmFcjoccf-74" value="第三方" style="text;html=1;strokeColor=none;fillColor=none;align=center;verticalAlign=middle;whiteSpace=wrap;rounded=0;" parent="1" vertex="1">
          <mxGeometry x="100" y="1196" width="70" height="20" as="geometry" />
        </mxCell>
        <mxCell id="GR49qIYdJjRqmFcjoccf-75" value="" style="rounded=0;whiteSpace=wrap;html=1;fillColor=#CCCCCC;strokeColor=#666666;gradientColor=none;" parent="1" vertex="1">
          <mxGeometry x="185" y="1186" width="450" height="140" as="geometry" />
        </mxCell>
        <mxCell id="GR49qIYdJjRqmFcjoccf-76" value="proxy" style="rounded=0;whiteSpace=wrap;html=1;fillColor=#CCCCCC;strokeColor=#6c8ebf;" parent="1" vertex="1">
          <mxGeometry x="185" y="1136" width="450" height="30" as="geometry" />
        </mxCell>
        <mxCell id="GR49qIYdJjRqmFcjoccf-77" value="" style="shape=flexArrow;endArrow=classic;html=1;width=6;endSize=2.67;endWidth=8;" parent="1" edge="1">
          <mxGeometry width="50" height="50" relative="1" as="geometry">
            <mxPoint x="286.94000000000005" y="1136" as="sourcePoint" />
            <mxPoint x="286.94000000000005" y="1116" as="targetPoint" />
          </mxGeometry>
        </mxCell>
        <mxCell id="GR49qIYdJjRqmFcjoccf-78" value="" style="shape=flexArrow;endArrow=classic;html=1;width=6;endSize=2.67;endWidth=8;" parent="1" edge="1">
          <mxGeometry width="50" height="50" relative="1" as="geometry">
            <mxPoint x="400" y="1136" as="sourcePoint" />
            <mxPoint x="400" y="1116" as="targetPoint" />
          </mxGeometry>
        </mxCell>
        <mxCell id="GR49qIYdJjRqmFcjoccf-79" value="" style="shape=flexArrow;endArrow=classic;html=1;width=6;endSize=2.67;endWidth=8;" parent="1" edge="1">
          <mxGeometry width="50" height="50" relative="1" as="geometry">
            <mxPoint x="286.79999999999995" y="1015.9999999999999" as="sourcePoint" />
            <mxPoint x="286.79999999999995" y="995.9999999999999" as="targetPoint" />
          </mxGeometry>
        </mxCell>
        <mxCell id="GR49qIYdJjRqmFcjoccf-80" value="" style="shape=flexArrow;endArrow=classic;html=1;width=6;endSize=2.67;endWidth=8;" parent="1" edge="1">
          <mxGeometry width="50" height="50" relative="1" as="geometry">
            <mxPoint x="400" y="1015.9999999999999" as="sourcePoint" />
            <mxPoint x="400" y="995.9999999999999" as="targetPoint" />
          </mxGeometry>
        </mxCell>
        <mxCell id="GR49qIYdJjRqmFcjoccf-81" value="" style="shape=flexArrow;endArrow=classic;html=1;width=6;endSize=2.67;endWidth=8;" parent="1" edge="1">
          <mxGeometry width="50" height="50" relative="1" as="geometry">
            <mxPoint x="286.79999999999995" y="895.9999999999999" as="sourcePoint" />
            <mxPoint x="286.79999999999995" y="875.9999999999999" as="targetPoint" />
          </mxGeometry>
        </mxCell>
        <mxCell id="GR49qIYdJjRqmFcjoccf-82" value="" style="shape=flexArrow;endArrow=classic;html=1;width=6;endSize=2.67;endWidth=8;" parent="1" edge="1">
          <mxGeometry width="50" height="50" relative="1" as="geometry">
            <mxPoint x="400" y="895.9999999999999" as="sourcePoint" />
            <mxPoint x="400" y="875.9999999999999" as="targetPoint" />
          </mxGeometry>
        </mxCell>
        <mxCell id="GR49qIYdJjRqmFcjoccf-83" value="" style="shape=flexArrow;endArrow=classic;html=1;width=6;endSize=2.67;endWidth=8;" parent="1" edge="1">
          <mxGeometry width="50" height="50" relative="1" as="geometry">
            <mxPoint x="510" y="895.9999999999999" as="sourcePoint" />
            <mxPoint x="510" y="875.9999999999999" as="targetPoint" />
          </mxGeometry>
        </mxCell>
        <mxCell id="GR49qIYdJjRqmFcjoccf-84" value="" style="shape=flexArrow;endArrow=classic;html=1;width=6;endSize=2.67;endWidth=8;" parent="1" edge="1">
          <mxGeometry width="50" height="50" relative="1" as="geometry">
            <mxPoint x="286.79999999999995" y="1186" as="sourcePoint" />
            <mxPoint x="286.79999999999995" y="1166" as="targetPoint" />
          </mxGeometry>
        </mxCell>
        <mxCell id="GR49qIYdJjRqmFcjoccf-85" value="" style="shape=flexArrow;endArrow=classic;html=1;width=6;endSize=2.67;endWidth=8;" parent="1" edge="1">
          <mxGeometry width="50" height="50" relative="1" as="geometry">
            <mxPoint x="510" y="1186" as="sourcePoint" />
            <mxPoint x="510" y="1166" as="targetPoint" />
          </mxGeometry>
        </mxCell>
        <mxCell id="GR49qIYdJjRqmFcjoccf-86" value="" style="shape=flexArrow;endArrow=classic;html=1;width=6;endSize=2.67;endWidth=8;entryX=0.835;entryY=1.004;entryDx=0;entryDy=0;entryPerimeter=0;" parent="1" target="GR49qIYdJjRqmFcjoccf-67" edge="1">
          <mxGeometry width="50" height="50" relative="1" as="geometry">
            <mxPoint x="560" y="1136" as="sourcePoint" />
            <mxPoint x="560" y="1116" as="targetPoint" />
          </mxGeometry>
        </mxCell>
        <mxCell id="GR49qIYdJjRqmFcjoccf-87" value="班课" style="rounded=0;whiteSpace=wrap;html=1;" parent="1" vertex="1">
          <mxGeometry x="214" y="1196" width="90" height="50" as="geometry" />
        </mxCell>
        <mxCell id="GR49qIYdJjRqmFcjoccf-88" value="订单" style="rounded=0;whiteSpace=wrap;html=1;" parent="1" vertex="1">
          <mxGeometry x="320" y="1196" width="90" height="50" as="geometry" />
        </mxCell>
        <mxCell id="GR49qIYdJjRqmFcjoccf-89" value="支付" style="rounded=0;whiteSpace=wrap;html=1;" parent="1" vertex="1">
          <mxGeometry x="420" y="1196" width="90" height="50" as="geometry" />
        </mxCell>
        <mxCell id="GR49qIYdJjRqmFcjoccf-90" value="优惠" style="rounded=0;whiteSpace=wrap;html=1;" parent="1" vertex="1">
          <mxGeometry x="520" y="1196" width="90" height="50" as="geometry" />
        </mxCell>
        <mxCell id="GR49qIYdJjRqmFcjoccf-91" value="在线" style="rounded=0;whiteSpace=wrap;html=1;" parent="1" vertex="1">
          <mxGeometry x="214" y="1256" width="90" height="50" as="geometry" />
        </mxCell>
        <mxCell id="GR49qIYdJjRqmFcjoccf-92" value="用户中心" style="rounded=0;whiteSpace=wrap;html=1;" parent="1" vertex="1">
          <mxGeometry x="320" y="1256" width="90" height="50" as="geometry" />
        </mxCell>
        <mxCell id="GR49qIYdJjRqmFcjoccf-93" value="云信" style="rounded=0;whiteSpace=wrap;html=1;" parent="1" vertex="1">
          <mxGeometry x="420" y="1256" width="90" height="50" as="geometry" />
        </mxCell>
        <mxCell id="GR49qIYdJjRqmFcjoccf-94" value="。。。" style="rounded=0;whiteSpace=wrap;html=1;" parent="1" vertex="1">
          <mxGeometry x="520" y="1256" width="90" height="50" as="geometry" />
        </mxCell>
        <mxCell id="h8sNI-aBpVSUjtsESsyM-1" value="" style="shape=flexArrow;endArrow=classic;startArrow=classic;html=1;exitX=1;exitY=0.5;exitDx=0;exitDy=0;width=5.517241379310345;endSize=6.358620689655173;endWidth=8.608799048751486;startWidth=8.608799048751486;startSize=6.358620689655173;gradientColor=#ea6b66;fillColor=#f8cecc;strokeColor=#b85450;" edge="1" parent="1" source="GR49qIYdJjRqmFcjoccf-13" target="GR49qIYdJjRqmFcjoccf-22">
          <mxGeometry width="50" height="50" relative="1" as="geometry">
            <mxPoint x="429" y="354" as="sourcePoint" />
            <mxPoint x="479" y="304" as="targetPoint" />
          </mxGeometry>
        </mxCell>
        <mxCell id="h8sNI-aBpVSUjtsESsyM-3" value="&lt;font color=&quot;#ff3333&quot;&gt;存在循环调用依赖&lt;/font&gt;" style="text;html=1;strokeColor=none;fillColor=none;align=center;verticalAlign=middle;whiteSpace=wrap;rounded=0;" vertex="1" parent="1">
          <mxGeometry x="373.5" y="232" width="40" height="20" as="geometry" />
        </mxCell>
      </root>
    </mxGraphModel>
  </diagram>
</mxfile>
